<svg xmlns="http://www.w3.org/2000/svg" width="169.138" height="30" viewBox="0 0 169.138 30" fill="none">
  <path d="M 13.559 5.188 C 13.651 5.485 14.007 6.175 14.156 6.48 C 14.556 7.298 14.961 8.113 15.373 8.924 L 18.934 16.028 L 20.046 18.224 C 20.216 18.56 20.492 19.075 20.629 19.412 C 20.921 19.355 21.208 19.32 21.503 19.281 C 21.597 19.248 22.5 19.169 22.655 19.154 C 22.9 19.088 23.839 19.018 24.122 18.996 C 24.312 18.975 24.456 18.965 24.647 18.96 C 25.116 18.895 26.011 18.869 26.483 18.862 C 27.471 18.848 28.566 18.832 29.551 18.891 C 29.953 18.901 31.137 18.945 31.51 19.014 C 31.42 19.081 31.211 19.073 31.091 19.084 C 31.241 19.09 31.414 19.093 31.562 19.107 L 31.538 19.127 L 31.565 19.114 C 31.435 19.144 31.16 19.106 31.091 19.143 C 31.186 19.204 32.139 19.118 32.372 19.207 L 32.351 19.238 C 31.896 19.257 31.44 19.272 30.984 19.283 C 29.599 19.316 28.207 19.421 26.825 19.517 C 26.533 19.538 24.912 19.732 24.764 19.716 C 24.345 19.788 23.791 19.826 23.343 19.885 C 21.976 20.065 20.534 20.246 19.179 20.498 C 13.369 21.579 6.744 24.376 2.064 28.001 C 4.886 22.576 7.656 17.124 10.373 11.646 L 12.38 7.585 L 13.097 6.163 C 13.249 5.862 13.447 5.498 13.559 5.188 Z M 13.719 19.275 C 13.879 19.228 13.994 19.196 14.158 19.164 C 14.268 19.124 14.471 19.077 14.59 19.046 C 14.916 18.942 15.727 18.773 16.063 18.721 C 16.272 18.657 16.605 18.614 16.83 18.578 C 16.65 18.31 16.414 17.783 16.257 17.469 C 15.877 16.717 15.502 15.963 15.131 15.207 L 14.141 13.195 C 13.933 12.783 13.637 12.244 13.464 11.825 C 13.142 12.518 12.765 13.241 12.426 13.933 C 11.286 16.194 10.184 18.474 9.119 20.771 C 9.138 20.791 9.154 20.818 9.17 20.813 C 9.51 20.7 10.043 20.461 10.377 20.346 C 11.395 19.995 12.684 19.509 13.719 19.275 Z" fill="currentColor" fill-rule="nonzero"></path>
  <path d="M 24.764 19.716 C 24.605 19.653 24.599 19.704 24.46 19.673 C 24.517 19.582 24.691 19.545 24.792 19.538 C 26.052 19.447 27.311 19.297 28.576 19.262 C 29.025 19.25 30.661 19.038 30.984 19.283 C 29.599 19.316 28.207 19.421 26.825 19.517 C 26.533 19.538 24.912 19.732 24.764 19.716 Z" fill="currentColor" fill-rule="nonzero"></path>
  <path d="M 24.647 18.96 C 25.116 18.895 26.011 18.869 26.483 18.862 C 27.471 18.848 28.566 18.832 29.551 18.891 C 29.381 18.895 29.208 18.888 29.046 18.938 L 29.071 18.944 C 28.597 19.008 28.137 18.996 27.627 18.996 C 27.163 18.995 26.849 19.006 26.315 18.999 C 25.943 18.994 25.07 19.125 24.683 19.008 C 24.678 19.006 24.65 18.963 24.647 18.96 Z" fill="currentColor" fill-rule="nonzero"></path>
  <path d="M 22.655 19.154 C 22.9 19.088 23.839 19.018 24.122 18.996 L 24.16 19.027 L 24.155 19.074 L 24.192 19.087 L 24.201 19.076 L 24.186 19.109 L 24.062 19.08 L 24.013 19.117 C 24.086 19.133 24.149 19.123 24.223 19.117 L 24.225 19.136 C 23.857 19.286 23.047 19.151 22.655 19.154 Z" fill="currentColor" fill-rule="nonzero"></path>
  <path d="M 20.629 19.412 C 20.921 19.355 21.208 19.32 21.503 19.281 C 21.491 19.328 21.495 19.368 21.443 19.39 C 21.29 19.457 20.708 19.596 20.629 19.412 Z" fill="currentColor" fill-rule="nonzero"></path>
  <path d="M 14.59 19.046 C 14.916 18.942 15.727 18.773 16.063 18.721 C 16.086 18.773 16.102 18.795 16.104 18.852 C 15.835 18.917 14.762 19.218 14.59 19.046 Z" fill="currentColor" fill-rule="nonzero"></path>
  <path d="M 13.719 19.275 C 13.879 19.228 13.994 19.196 14.158 19.164 L 14.282 19.234 C 14.189 19.384 13.865 19.363 13.719 19.275 Z" fill="currentColor" fill-rule="nonzero"></path>
  <path d="M 23.612 0.403 C 23.652 0.419 23.691 0.424 23.697 0.46 C 23.732 0.687 23.737 1.564 23.699 1.742 C 23.649 1.789 23.677 1.776 23.612 1.786 C 21.823 1.741 19.917 1.776 18.115 1.775 L 3.435 1.775 C 2.791 1.776 1.957 1.801 1.325 1.768 C 1.355 2.488 1.334 3.337 1.333 4.067 L 1.332 24.171 L 1.336 25.68 C 1.339 26.827 1.328 26.686 0.84 27.725 C 0.651 28.132 0.464 28.541 0.28 28.95 C 0.168 29.18 0.147 29.336 0.002 29.589 C -0.007 29.388 0.023 28.983 0.025 28.748 L 0.028 26.477 L 0.027 7.514 C 0.027 5.617 0.001 3.665 0.032 1.773 C 0.006 1.477 0.03 0.751 0.022 0.413 L 1.936 0.412 L 18.692 0.41 C 19.335 0.41 20.269 0.38 20.876 0.421 C 21.028 0.397 21.506 0.412 21.682 0.41 C 22.32 0.401 22.975 0.427 23.612 0.403 Z" fill="currentColor" fill-rule="nonzero"></path>
  <path d="M 0.032 1.773 C 0.115 1.646 0.022 0.76 0.114 0.678 C 0.181 1.027 0.133 1.131 0.133 1.46 L 0.143 2.605 L 0.139 7.116 L 0.143 24.747 C 0.142 25.26 0.086 28.624 0.177 28.868 L 0.24 28.86 L 0.28 28.95 C 0.168 29.18 0.147 29.336 0.002 29.589 C -0.007 29.388 0.023 28.983 0.025 28.748 L 0.028 26.477 L 0.027 7.514 C 0.027 5.617 0.001 3.665 0.032 1.773 Z" fill="currentColor" fill-rule="nonzero"></path>
  <path d="M 1.936 0.412 L 18.692 0.41 C 19.335 0.41 20.269 0.38 20.876 0.421 C 21.054 0.582 23.111 0.413 23.499 0.533 C 23.464 0.553 18.545 0.552 18.041 0.549 L 2.213 0.556 C 1.932 0.559 0.316 0.589 0.186 0.525 C 0.418 0.463 1.648 0.464 1.94 0.465 L 1.936 0.412 Z" fill="currentColor" fill-rule="nonzero"></path>
  <path d="M 23.612 0.403 C 23.652 0.419 23.691 0.424 23.697 0.46 C 23.732 0.687 23.737 1.564 23.699 1.742 C 23.649 1.789 23.677 1.776 23.612 1.786 C 23.575 1.745 23.552 1.729 23.538 1.675 C 23.654 1.33 23.483 0.571 23.612 0.403 Z" fill="currentColor" fill-rule="nonzero"></path>
  <path d="M 0.925 30 C 2.299 28.962 3.718 27.983 5.177 27.066 C 8.822 24.796 12.79 23.083 16.948 21.985 C 19.259 21.393 21.609 20.964 23.981 20.701 C 24.135 20.683 24.832 20.585 24.938 20.648 C 24.796 20.741 22.108 21.497 21.729 21.608 C 21.954 22.004 22.276 22.722 22.486 23.15 L 24.088 26.391 L 24.137 26.476 L 24.124 26.524 C 23.992 26.565 20.646 26.552 20.329 26.534 C 19.84 25.366 19.106 23.891 18.543 22.732 C 18.282 22.883 17.455 23.216 17.129 23.359 C 16.311 23.721 15.504 24.105 14.708 24.512 C 11.953 25.939 9.163 27.966 6.804 29.967 L 2.953 29.966 C 2.485 29.966 1.341 29.94 0.925 30 Z" fill="currentColor" fill-rule="nonzero"></path>
  <path d="M 27.337 20.769 C 27.742 20.711 28.249 20.648 28.644 20.566 C 28.605 20.907 28.624 21.427 28.623 21.789 L 28.619 23.93 L 28.624 27.715 C 28.626 28.454 28.615 29.23 28.637 29.964 L 23.363 29.963 C 22.526 29.964 21.523 29.991 20.7 29.961 L 20.281 29.971 L 20.293 29.656 C 20.29 29.318 20.298 28.878 20.278 28.549 L 24.619 28.545 C 25.473 28.545 26.493 28.517 27.335 28.55 C 27.346 26.929 27.348 25.309 27.341 23.689 C 27.341 22.76 27.368 21.689 27.337 20.769 Z" fill="currentColor" fill-rule="nonzero"></path>
  <path d="M 20.293 29.656 C 20.477 29.407 20.26 29.005 20.414 28.784 C 20.473 29.061 20.39 29.374 20.498 29.865 C 20.83 29.865 21.367 29.851 21.682 29.875 C 21.517 29.879 20.496 29.88 20.431 29.92 C 20.538 29.969 20.583 29.962 20.7 29.961 L 20.281 29.971 L 20.293 29.656 Z" fill="currentColor" fill-rule="nonzero"></path>
  <path d="M 25.74 4.353 C 25.762 3.229 25.718 1.261 25.755 0.067 C 25.756 0.033 25.841 0.014 25.882 0 C 26.078 0.038 27.108 0.029 27.366 0.025 C 28.218 0.01 29.132 0.048 29.978 0.015 C 29.904 1.231 29.995 2.518 29.958 3.74 C 29.953 3.928 29.953 4.168 29.967 4.353 L 29.271 4.35 C 28.096 4.354 26.913 4.339 25.74 4.353 Z" fill="currentColor" fill-rule="nonzero"></path>
  <path d="M 27.341 6.403 L 28.627 6.402 C 28.605 6.674 28.619 7.119 28.619 7.4 L 28.618 14.998 L 28.624 16.719 C 28.625 16.914 28.638 17.401 28.612 17.574 C 28.236 17.557 27.696 17.557 27.324 17.579 C 27.351 17.247 27.34 16.8 27.341 16.457 L 27.339 8.84 L 27.335 7.278 C 27.334 7.03 27.321 6.641 27.341 6.403 Z" fill="currentColor" fill-rule="nonzero"></path>
  <path d="M 31.51 19.014 C 31.769 19.008 33.896 19.167 34 19.237 C 33.896 19.313 32.599 19.247 32.351 19.238 L 32.372 19.207 C 32.139 19.118 31.186 19.204 31.091 19.143 C 31.16 19.106 31.435 19.144 31.565 19.114 L 31.538 19.127 L 31.562 19.107 C 31.414 19.093 31.241 19.09 31.091 19.084 C 31.211 19.073 31.42 19.081 31.51 19.014 Z" fill="currentColor" fill-rule="nonzero"></path>
  <path d="M 92.209 0.201 C 92.773 0.014 93.77 -0.032 94.357 0.02 C 96.423 0.172 98.126 0.984 99.5 2.547 C 100.322 3.482 101.02 5.044 101.14 6.286 C 101.384 7.633 101.241 9.421 100.651 10.67 C 100.424 11.413 99.659 12.446 99.111 12.984 C 100.305 13.8 100.766 13.956 102.127 14.441 C 101.9 14.718 101.309 15.513 101.001 15.61 C 100.717 15.797 100.395 15.917 100.058 15.963 C 99.752 16.039 99.289 16.095 98.966 16.144 C 98.485 15.639 97.869 14.819 97.403 14.253 C 97.048 14.476 96.304 14.815 95.896 14.899 C 94.715 15.284 93.292 15.305 92.086 15.034 C 91.729 15.024 90.738 14.631 90.383 14.446 C 88.569 13.5 87.343 12.085 86.719 10.14 C 86.219 8.841 86.267 7.454 86.476 6.109 C 86.818 4.082 88.286 1.885 90.149 0.963 C 90.262 0.881 90.504 0.774 90.64 0.709 C 91.07 0.515 91.745 0.257 92.209 0.201 Z M 95.718 12.223 C 95.414 11.866 94.948 11.283 94.623 10.973 C 95.165 10.602 95.92 10.185 96.401 9.82 C 96.756 10.263 97.239 10.901 97.61 11.313 C 97.969 10.75 98.315 10.211 98.487 9.558 C 99.478 5.781 97.606 2.208 93.432 2.348 C 91.946 2.561 90.81 3.013 89.913 4.258 C 88.265 6.548 88.561 10.331 90.93 12.036 C 91.997 12.804 93.296 13.073 94.581 12.876 C 94.827 12.838 95.676 12.637 95.833 12.497 L 95.854 12.391 C 95.808 12.332 95.769 12.279 95.718 12.223 Z" fill="currentColor" fill-rule="nonzero"></path>
  <path d="M 101.14 6.287 C 101.384 7.634 101.241 9.422 100.651 10.671 C 100.529 10.574 100.564 10.627 100.528 10.47 C 100.64 10.127 100.749 9.789 100.844 9.429 C 101.097 8.46 100.959 7.41 101.031 6.423 C 101.031 6.423 101.132 6.297 101.14 6.287 Z" fill="currentColor" fill-rule="nonzero"></path>
  <path d="M 92.086 15.034 L 92.135 14.896 C 92.363 14.845 93.736 14.997 94.116 14.994 C 94.62 14.991 95.437 14.771 95.815 14.766 L 95.896 14.899 C 94.715 15.284 93.292 15.305 92.086 15.034 Z" fill="currentColor" fill-rule="nonzero"></path>
  <path d="M 86.476 6.112 C 86.615 6.249 86.626 6.23 86.616 6.476 C 86.587 7.113 86.479 7.71 86.521 8.351 C 86.542 8.682 86.9 9.848 86.815 10.052 L 86.719 10.143 C 86.219 8.843 86.267 7.456 86.476 6.112 Z" fill="currentColor" fill-rule="nonzero"></path>
  <path d="M 92.209 0.201 C 92.773 0.014 93.77 -0.032 94.357 0.02 C 94.546 0.198 94.659 0.1 94.784 0.19 C 94.546 0.239 92.498 0.335 92.305 0.292 L 92.209 0.201 Z" fill="currentColor" fill-rule="nonzero"></path>
  <path d="M 100.058 15.963 C 99.896 15.939 99.646 15.934 99.475 15.925 C 99.633 15.788 100.686 15.516 100.917 15.502 L 101.001 15.61 C 100.717 15.797 100.395 15.917 100.058 15.963 Z" fill="currentColor" fill-rule="nonzero"></path>
  <path d="M 90.149 0.963 C 90.262 0.881 90.504 0.774 90.64 0.709 C 90.798 0.722 90.849 0.696 90.932 0.788 C 90.806 0.966 90.528 1.012 90.32 1.061 C 90.247 1.029 90.209 1.017 90.149 0.963 Z" fill="currentColor" fill-rule="nonzero"></path>
  <path d="M 92.91 13.041 C 93.154 13.02 94.359 13.015 94.572 13.053 L 94.59 13.137 C 94.136 13.177 93.288 13.297 92.91 13.041 Z" fill="currentColor" fill-rule="nonzero"></path>
  <path d="M 142.973 0.375 C 143.482 0.318 144.288 0.324 144.81 0.342 C 147.075 0.42 149.721 -0.056 151.636 1.428 C 153.261 2.686 153.493 5.497 152.326 7.117 C 152.241 7.235 152.058 7.422 151.941 7.499 C 151.543 7.944 150.904 8.273 150.337 8.447 C 150.158 8.504 149.885 8.58 149.718 8.648 C 150.074 9.159 150.439 9.761 150.749 10.304 C 151.598 11.793 152.589 13.232 153.44 14.715 C 153.534 14.858 153.571 14.858 153.552 14.996 C 153.197 15.032 150.926 15.067 150.711 14.956 L 150.607 14.806 C 150.439 14.432 149.754 13.296 149.506 12.855 L 147.249 8.834 C 146.61 8.844 145.97 8.85 145.331 8.851 C 145.386 10.207 145.305 11.679 145.334 13.043 C 145.343 13.51 145.297 14.35 145.362 14.778 C 145.35 14.856 145.331 14.888 145.299 14.959 C 145.098 15.068 143.341 15.018 142.939 15.026 C 142.977 13.676 142.948 12.16 142.946 10.795 L 142.954 4.774 C 142.952 3.537 142.875 1.516 142.973 0.375 Z M 145.338 6.754 C 146.888 6.696 148.771 7.014 149.957 6.117 C 150.695 5.323 150.755 4.104 149.95 3.322 C 149.164 2.557 147.945 2.692 146.946 2.681 C 146.472 2.682 145.894 2.673 145.427 2.695 C 145.39 2.696 145.354 2.698 145.317 2.7 C 145.386 3.955 145.324 5.476 145.338 6.754 Z" fill="currentColor" fill-rule="nonzero"></path>
  <path d="M 142.973 0.375 C 143.041 0.408 143.116 0.421 143.144 0.494 C 143.17 0.561 143.23 13.534 143.166 14.8 C 143.476 14.77 145.125 14.715 145.362 14.778 C 145.35 14.856 145.331 14.888 145.299 14.959 C 145.098 15.068 143.341 15.018 142.939 15.026 C 142.977 13.676 142.948 12.16 142.946 10.795 L 142.954 4.774 C 142.952 3.537 142.875 1.516 142.973 0.375 Z" fill="currentColor" fill-rule="nonzero"></path>
  <path d="M 150.607 14.806 C 151.262 14.709 153.074 14.83 153.44 14.715 C 153.534 14.858 153.571 14.858 153.552 14.996 C 153.197 15.032 150.926 15.067 150.711 14.956 L 150.607 14.806 Z" fill="currentColor" fill-rule="nonzero"></path>
  <path d="M 150.337 8.447 C 150.194 8.442 150.051 8.435 149.908 8.426 L 149.897 8.379 C 150.167 8.17 151.176 8.006 151.503 7.662 C 151.608 7.552 151.786 7.481 151.941 7.499 C 151.543 7.944 150.904 8.273 150.337 8.447 Z" fill="currentColor" fill-rule="nonzero"></path>
  <path d="M 48.158 0.371 C 48.481 0.365 50.07 0.282 50.239 0.439 C 51.49 3.328 52.725 6.458 53.93 9.381 L 55.33 12.772 C 55.565 13.34 55.922 14.125 56.115 14.689 C 56.178 14.844 56.211 14.851 56.181 14.997 C 55.895 15.019 53.882 15.051 53.663 15.009 C 53.576 14.921 53.569 14.906 53.523 14.791 L 52.276 11.67 C 50.263 11.68 47.995 11.725 45.987 11.671 C 45.512 12.701 45.046 13.954 44.612 15.02 C 44.019 15.104 42.785 14.957 42 15.054 C 42.119 14.815 42.205 14.63 42.306 14.381 C 42.804 13.114 43.39 11.809 43.929 10.555 C 44.849 8.404 45.757 6.248 46.654 4.087 C 47.146 2.898 47.715 1.568 48.158 0.371 Z M 46.786 9.544 C 47.586 9.526 48.386 9.52 49.186 9.528 C 49.892 9.526 50.752 9.501 51.447 9.532 C 51.127 8.777 50.907 8.169 50.541 7.245 C 50.211 6.413 49.517 4.646 49.193 3.707 C 49.193 3.707 49.088 3.633 49.077 3.626 C 48.822 4.179 48.631 4.844 48.408 5.42 C 47.945 6.608 47.477 7.793 47.024 8.985 C 46.952 9.175 46.88 9.364 46.786 9.544 Z" fill="currentColor" fill-rule="nonzero"></path>
  <path d="M 53.523 14.791 C 53.532 14.665 53.54 14.642 53.583 14.523 C 53.68 14.644 53.702 14.678 53.843 14.757 C 54.36 14.754 55.778 14.881 56.115 14.689 C 56.178 14.844 56.211 14.851 56.181 14.997 C 55.895 15.019 53.882 15.051 53.663 15.009 C 53.576 14.921 53.569 14.906 53.523 14.791 Z" fill="currentColor" fill-rule="nonzero"></path>
  <path d="M 42 15.056 C 42.119 14.816 42.205 14.631 42.306 14.382 C 42.308 14.494 42.311 14.572 42.296 14.685 C 42.664 15.013 44.504 14.425 44.612 15.021 C 44.019 15.106 42.785 14.958 42 15.056 Z" fill="currentColor" fill-rule="nonzero"></path>
  <path d="M 129.856 0.524 C 129.87 0.51 129.995 0.392 129.995 0.392 C 130.319 0.329 131.889 0.274 132.104 0.431 L 132.185 0.56 C 132.291 1.103 132.991 2.612 133.224 3.199 L 136.81 11.982 C 136.996 12.428 137.873 14.4 137.924 14.729 L 138.033 14.903 L 138.004 14.992 C 137.581 15.073 135.98 15.001 135.426 15.035 C 135.042 14.095 134.377 12.592 134.066 11.675 C 132.006 11.676 129.839 11.708 127.787 11.674 C 127.604 12.096 126.518 14.687 126.519 14.919 C 126.472 14.851 126.414 14.79 126.361 14.727 L 126.337 14.601 C 125.732 14.603 125.117 14.707 124.51 14.64 C 124.372 14.624 124.235 14.602 124.098 14.594 L 124.059 14.453 C 124.684 12.979 129.867 0.942 129.856 0.524 Z M 128.602 9.538 C 129.368 9.528 130.134 9.523 130.899 9.523 C 131.657 9.524 132.458 9.538 133.212 9.521 C 132.978 8.852 131.118 3.779 130.916 3.643 C 130.782 3.835 130.41 4.913 130.288 5.214 C 129.715 6.634 129.193 8.131 128.602 9.538 Z" fill="currentColor" fill-rule="nonzero"></path>
  <path d="M 129.856 0.524 C 129.87 0.51 129.995 0.392 129.995 0.392 C 130.319 0.329 131.889 0.274 132.104 0.431 L 132.185 0.56 C 131.961 0.719 130.45 0.537 130.086 0.586 C 130.041 0.657 130.016 0.72 129.941 0.749 L 129.856 0.524 Z" fill="currentColor" fill-rule="nonzero"></path>
  <path d="M 135.57 14.849 C 135.873 14.66 137.384 14.819 137.924 14.729 C 137.912 14.803 137.908 14.803 137.882 14.874 C 137.555 14.922 135.852 14.937 135.57 14.849 Z" fill="currentColor" fill-rule="nonzero"></path>
  <path d="M 159.401 0.673 C 159.388 0.525 159.377 0.463 159.493 0.376 C 159.904 0.338 161.742 0.329 162.066 0.352 C 162.869 0.408 168.679 0.255 168.909 0.413 C 168.475 0.508 167.055 0.488 166.543 0.488 L 162.668 0.486 C 161.927 0.485 161.043 0.461 160.316 0.516 C 160.969 0.547 167.791 0.63 167.771 0.621 C 167.1 0.666 166.241 0.616 165.554 0.626 C 163.969 0.649 162.346 0.602 160.764 0.637 C 160.872 0.695 161.764 0.669 162.036 0.708 L 161.872 0.72 C 162.568 0.746 163.478 0.738 164.173 0.732 C 165.167 0.724 167.246 0.829 168.14 0.637 C 168.27 0.634 168.41 0.612 168.516 0.674 C 168.585 1.121 168.573 1.925 168.564 2.397 C 167.114 2.45 165.664 2.476 164.214 2.474 C 163.876 2.473 162.013 2.364 161.833 2.416 C 161.91 2.488 162.333 2.479 162.478 2.486 C 162.226 2.487 162.017 2.444 161.828 2.561 L 161.852 2.61 C 162.226 2.653 162.785 2.577 163.199 2.579 C 164.621 2.592 166.044 2.596 167.467 2.589 C 167.76 2.589 168.684 2.567 168.905 2.63 C 168.762 2.753 167.293 2.703 166.993 2.703 L 161.818 2.701 C 161.857 3.903 161.819 5.208 161.821 6.422 C 163.345 6.464 164.912 6.403 166.439 6.422 C 166.693 6.424 167.935 6.4 168.121 6.441 L 168.158 6.518 C 167.989 6.747 167.972 6.638 167.87 6.723 C 167.738 6.832 167.775 8.071 167.804 8.269 C 167.813 8.331 167.818 8.376 167.857 8.429 L 167.986 8.395 L 168.008 8.439 C 168.057 8.532 168.062 8.556 168.152 8.609 L 168.126 8.691 C 167.961 8.752 162.383 8.732 161.81 8.709 C 161.857 9.996 161.75 11.52 161.827 12.753 C 163.51 12.736 165.193 12.733 166.877 12.741 C 167.573 12.742 168.451 12.764 169.138 12.735 C 169.129 13.08 169.169 14.859 169.062 15.035 C 168.362 14.96 166.462 15.01 165.654 15.013 C 163.586 15.02 161.439 14.978 159.379 15.028 C 159.424 14.543 159.404 13.759 159.403 13.255 L 159.397 10.265 L 159.401 0.673 Z" fill="currentColor" fill-rule="nonzero"></path>
  <path d="M 159.401 0.673 L 159.614 0.75 C 159.75 2.404 159.472 14.38 159.699 14.753 L 159.738 14.75 C 159.959 14.73 160.187 14.74 160.41 14.744 C 162.746 14.792 165.083 14.737 167.419 14.774 C 167.649 14.778 168.898 14.736 169.01 14.824 L 169.062 15.035 C 168.362 14.96 166.462 15.01 165.654 15.013 C 163.586 15.02 161.439 14.978 159.379 15.028 C 159.424 14.543 159.404 13.759 159.403 13.255 L 159.397 10.265 L 159.401 0.673 Z" fill="currentColor" fill-rule="nonzero"></path>
  <path d="M 117.082 0.373 C 117.81 0.322 118.781 0.343 119.522 0.349 C 119.474 1.174 119.504 2.22 119.506 3.058 L 119.513 7.655 C 119.514 8.264 119.552 9.974 119.422 10.483 L 119.411 10.524 C 119.238 11.936 118.512 13.221 117.392 14.097 C 116.983 14.413 116.448 14.719 115.958 14.89 C 115.716 14.967 115.458 15.056 115.21 15.107 C 114.802 15.205 114.579 15.234 114.16 15.274 C 113.434 15.311 112.859 15.313 112.154 15.146 C 111.3 15.035 110.198 14.453 109.559 13.883 C 107.622 12.152 107.819 9.757 107.821 7.413 L 107.821 2.925 C 107.82 2.133 107.845 1.14 107.798 0.361 C 108.487 0.358 109.502 0.386 110.157 0.328 C 110.225 0.57 110.196 2.068 110.195 2.434 L 110.192 7.26 C 110.192 7.991 110.155 9.102 110.206 9.798 C 110.303 10.702 110.477 11.424 111.149 12.099 C 112.586 13.543 115.364 13.296 116.464 11.551 C 117.109 10.528 117.073 9.435 117.065 8.278 L 117.064 3.062 C 117.063 2.479 117.023 0.911 117.082 0.373 Z" fill="currentColor" fill-rule="nonzero"></path>
  <path d="M 110.157 0.328 C 110.225 0.57 110.196 2.068 110.195 2.434 L 110.192 7.26 C 110.192 7.991 110.155 9.102 110.206 9.798 C 110.178 9.976 110.18 10.462 110.177 10.664 C 109.833 9.759 109.952 8.043 109.953 7.027 L 109.955 2.384 C 109.957 1.965 110.052 1.03 109.968 0.683 C 109.872 0.606 109.355 0.548 109.194 0.522 C 109.29 0.431 109.749 0.607 110.117 0.356 L 110.157 0.328 Z" fill="currentColor" fill-rule="nonzero"></path>
  <path d="M 117.082 0.373 L 117.251 0.463 C 117.331 0.774 117.269 2.466 117.269 2.914 L 117.266 7.094 C 117.265 7.93 117.285 8.898 117.23 9.722 L 117.196 9.748 L 117.195 9.782 C 117.112 9.273 117.142 8.796 117.065 8.278 L 117.064 3.062 C 117.063 2.479 117.023 0.911 117.082 0.373 Z" fill="currentColor" fill-rule="nonzero"></path>
  <path d="M 119.411 10.525 C 119.138 10.441 119.257 9.959 119.257 9.661 C 119.262 7.432 119.257 5.183 119.258 2.956 C 119.258 2.634 119.246 0.909 119.301 0.741 L 119.353 0.79 C 119.322 1.119 119.376 2.571 119.375 3.035 L 119.38 8.24 C 119.381 8.642 119.359 10.136 119.415 10.447 L 119.422 10.484 L 119.411 10.525 Z" fill="currentColor" fill-rule="nonzero"></path>
  <path d="M 112.154 15.146 C 112.236 15.043 112.23 15.013 112.374 15.009 C 112.943 14.991 113.668 15.124 114.225 15.119 C 114.221 15.189 114.197 15.215 114.16 15.274 C 113.434 15.311 112.859 15.313 112.154 15.146 Z" fill="currentColor" fill-rule="nonzero"></path>
  <path d="M 115.21 15.107 C 114.959 15.073 114.759 15.154 114.466 15.11 L 114.442 15.057 C 114.538 15.056 114.618 15.054 114.714 15.047 C 114.656 14.98 114.366 15.037 114.2 14.998 C 114.836 15.001 115.154 14.859 115.77 14.766 C 115.845 14.755 115.906 14.837 115.958 14.89 C 115.716 14.967 115.458 15.056 115.21 15.107 Z" fill="currentColor" fill-rule="nonzero"></path>
  <path d="M 75.439 0.116 C 75.761 0 76.494 0.005 76.838 0.016 C 77.409 0.048 77.727 0.087 78.285 0.225 C 78.754 0.357 79.083 0.468 79.516 0.703 C 80.092 0.993 80.538 1.388 81.016 1.819 C 80.554 2.272 79.654 3.118 79.275 3.621 C 78.691 2.888 77.982 2.453 77.036 2.343 C 76.262 2.252 75.356 2.343 74.725 2.839 C 74.345 3.137 74.118 3.549 74.068 4.028 C 74.024 4.463 74.113 4.903 74.394 5.246 C 75.652 6.788 79.924 6.409 80.851 9.328 C 81.168 10.268 81.147 11.425 80.848 12.366 C 80.354 13.824 78.75 14.981 77.244 15.146 C 75.997 15.419 74.365 15.297 73.199 14.757 C 72.399 14.5 71.535 13.671 70.981 13.071 C 71.561 12.624 72.258 12.004 72.832 11.527 C 73.871 12.962 75.56 13.461 77.231 12.848 C 78.152 12.511 78.759 11.709 78.571 10.706 C 78.356 9.568 77.205 9.183 76.243 8.862 C 74.296 8.198 72.148 7.683 71.703 5.352 C 71.188 2.657 72.82 0.615 75.439 0.116 Z" fill="currentColor" fill-rule="nonzero"></path>
  <path d="M 73.199 14.757 C 73.316 14.622 73.256 14.655 73.423 14.63 C 74.052 14.917 75.272 15.023 75.984 15.105 C 76.302 15.141 77.031 14.808 77.244 15.146 C 75.997 15.419 74.365 15.297 73.199 14.757 Z" fill="currentColor" fill-rule="nonzero"></path>
  <path d="M 80.848 12.367 C 80.798 12.294 80.679 12.153 80.705 12.075 C 80.982 11.24 80.833 10.437 80.712 9.587 C 80.693 9.445 80.758 9.42 80.851 9.329 C 81.168 10.269 81.147 11.426 80.848 12.367 Z" fill="currentColor" fill-rule="nonzero"></path>
  <path d="M 75.439 0.116 C 75.761 0 76.494 0.005 76.838 0.016 C 76.952 0.105 76.991 0.127 77.132 0.158 L 77.158 0.21 C 77.015 0.237 75.355 0.324 75.256 0.308 C 75.344 0.23 75.369 0.21 75.439 0.116 Z" fill="currentColor" fill-rule="nonzero"></path>
  <path d="M 78.284 0.226 C 78.753 0.358 79.083 0.469 79.516 0.704 L 79.463 0.804 L 79.364 0.83 C 78.928 0.704 78.386 0.57 77.982 0.355 C 77.941 0.334 77.917 0.317 77.872 0.298 L 77.831 0.282 C 78.014 0.275 78.104 0.259 78.284 0.226 Z" fill="currentColor" fill-rule="nonzero"></path>
  <path d="M 42.154 20.954 L 163.763 20.959 C 164.219 20.96 168.894 20.921 169.069 20.99 C 169.134 21.125 169.111 21.095 169.072 21.274 C 166.874 21.199 164.347 21.259 162.121 21.257 L 53.216 21.257 C 49.682 21.254 46.144 21.25 42.61 21.272 C 42.469 21.273 42.288 21.285 42.168 21.213 C 42.11 21.071 42.122 21.131 42.154 20.954 Z" fill="currentColor" fill-rule="nonzero"></path>
  <path d="M 60.371 7.064 L 63.724 7.067 C 64.407 7.068 65.207 7.087 65.876 7.04 C 65.861 7.401 65.93 9.047 65.81 9.19 C 64.272 9.145 61.851 9.112 60.329 9.201 C 60.339 8.834 60.327 7.23 60.371 7.064 Z" fill="currentColor" fill-rule="nonzero"></path>
  <path d="M 60.507 7.312 C 60.736 7.241 61.615 7.295 61.901 7.281 C 63.043 7.226 64.549 7.354 65.659 7.272 C 65.65 7.747 65.731 8.472 65.664 8.927 C 65.522 8.912 65.356 8.919 65.213 8.916 C 63.673 8.879 62.129 8.938 60.59 8.892 C 60.596 8.389 60.641 7.792 60.507 7.312 Z" fill="currentColor" fill-rule="nonzero"></path>
  <path d="M 92.034 26.379 C 92.674 26.26 93.329 26.495 93.748 26.994 C 94.167 27.492 94.286 28.178 94.058 28.788 C 93.831 29.398 93.293 29.839 92.65 29.943 C 91.672 30.099 90.75 29.441 90.581 28.465 C 90.413 27.489 91.06 26.559 92.034 26.379 Z M 92.626 29.568 C 94.244 29.064 93.997 26.748 92.219 26.731 C 92.041 26.771 91.904 26.806 91.74 26.893 C 90.778 27.406 90.806 28.898 91.747 29.416 C 92.059 29.588 92.273 29.581 92.626 29.568 Z" fill="currentColor" fill-rule="nonzero"></path>
  <path d="M 112.566 26.384 C 113.543 26.192 114.49 26.826 114.687 27.802 C 114.883 28.777 114.254 29.728 113.28 29.929 C 112.298 30.131 111.34 29.497 111.142 28.515 C 110.944 27.533 111.583 26.577 112.566 26.384 Z M 113.271 29.505 C 114.003 29.315 114.447 28.571 114.268 27.836 C 114.088 27.1 113.351 26.645 112.613 26.815 C 112.126 26.927 111.737 27.292 111.595 27.77 C 111.453 28.249 111.58 28.767 111.927 29.126 C 112.274 29.485 112.787 29.63 113.271 29.505 Z" fill="currentColor" fill-rule="nonzero"></path>
  <path d="M 164.549 26.397 C 165.331 26.428 166.404 26.255 166.975 26.868 C 167.716 27.662 167.63 28.756 166.892 29.503 C 166.179 30.052 165.384 29.885 164.489 29.916 C 164.501 29.444 164.451 26.595 164.549 26.397 Z M 166.647 29.159 C 167.141 28.535 167.289 27.688 166.602 27.137 C 166.101 26.735 165.515 26.795 164.913 26.802 L 164.928 29.542 C 165.681 29.509 166.026 29.603 166.647 29.159 Z" fill="currentColor" fill-rule="nonzero"></path>
  <path d="M 69.17 26.411 C 69.53 26.4 70.207 26.349 70.513 26.486 C 71.581 26.966 71.258 27.941 70.333 28.328 C 70.493 28.588 71.289 29.703 71.179 29.92 C 70.865 30.006 70.68 29.759 70.562 29.514 C 70.428 29.263 70.059 28.579 69.887 28.394 C 69.798 28.346 69.605 28.307 69.515 28.342 C 68.902 28.578 69.72 29.759 69.06 29.923 L 69.006 29.882 C 68.839 29.505 68.895 27.068 68.903 26.507 C 69.004 26.394 68.978 26.428 69.17 26.411 Z M 69.304 27.964 C 69.708 27.957 70.191 28.001 70.521 27.807 C 71.272 26.807 69.923 26.805 69.318 26.803 C 69.308 27.191 69.309 27.576 69.304 27.964 Z" fill="currentColor" fill-rule="nonzero"></path>
  <path d="M 60.286 26.387 C 61.035 26.421 62.967 26.185 62.42 27.731 C 62.295 28.083 62.004 28.2 61.674 28.321 C 61.837 28.509 62.608 29.7 62.602 29.875 C 62.47 29.935 62.355 29.902 62.206 29.883 C 62.07 29.809 62.01 29.652 61.937 29.51 C 61.75 29.172 61.429 28.358 61 28.327 C 60.903 28.32 60.756 28.321 60.657 28.323 C 60.691 28.689 60.659 29.303 60.675 29.726 C 60.592 29.883 60.643 29.835 60.484 29.907 C 60.328 29.87 60.381 29.905 60.288 29.775 C 60.241 29.427 60.233 26.648 60.286 26.387 Z M 60.663 27.971 C 61.06 27.973 61.463 28.001 61.826 27.844 C 62.71 26.879 61.322 26.809 60.704 26.815 C 60.634 27.028 60.661 27.709 60.663 27.971 Z" fill="currentColor" fill-rule="nonzero"></path>
  <path d="M 140.805 26.417 C 140.818 26.42 140.884 26.471 140.901 26.483 C 140.969 26.78 140.978 29.611 140.806 29.903 L 140.722 29.917 C 140.267 29.579 140.694 27.707 140.471 27.193 C 140.193 27.347 139.614 29.541 139.228 29.918 L 139.145 29.901 C 138.814 29.619 138.319 27.839 138.059 27.36 C 137.983 27.221 137.946 27.237 137.795 27.195 C 137.866 27.759 137.856 29.071 137.844 29.688 C 137.842 29.793 137.709 29.876 137.613 29.922 C 137.327 29.782 137.492 28.192 137.452 27.819 C 137.429 27.606 137.439 26.609 137.482 26.487 C 137.587 26.412 137.974 26.382 138.042 26.474 C 138.401 26.966 138.832 28.644 139.188 29.016 C 139.45 28.896 140.014 26.997 140.343 26.49 C 140.465 26.396 140.638 26.419 140.805 26.417 Z" fill="currentColor" fill-rule="nonzero"></path>
  <path d="M 64.686 26.391 C 65.333 26.421 66.134 26.24 66.658 26.722 C 67.039 27.07 67.061 27.623 66.683 27.988 C 66.248 28.408 65.701 28.346 65.143 28.332 C 64.921 28.647 65.35 29.827 64.81 29.928 C 64.756 29.883 64.739 29.85 64.72 29.782 C 64.621 29.446 64.564 26.608 64.686 26.391 Z M 66.267 27.835 C 67.078 26.844 65.733 26.799 65.104 26.807 C 65.034 27.145 64.912 27.966 65.447 27.995 C 65.666 28.007 66.072 27.94 66.267 27.835 Z" fill="currentColor" fill-rule="nonzero"></path>
  <path d="M 143.093 26.421 C 143.867 26.439 145.362 26.222 145.352 27.387 C 145.343 28.359 144.414 28.331 143.69 28.321 L 143.63 28.345 C 143.378 28.71 143.749 29.652 143.411 29.944 C 142.963 29.914 143.126 28.814 143.131 28.471 C 143.147 27.787 143.135 27.103 143.093 26.421 Z M 143.548 28.008 C 143.977 27.996 144.338 28.035 144.703 27.825 C 145.084 27.379 145.002 26.994 144.421 26.842 C 144.128 26.766 143.88 26.81 143.598 26.762 C 143.507 26.989 143.545 27.711 143.548 28.008 Z" fill="currentColor" fill-rule="nonzero"></path>
  <path d="M 116.81 26.412 C 116.889 26.407 117.106 26.391 117.162 26.439 C 117.534 26.764 118.849 29.04 119.103 29.104 C 119.39 28.716 118.912 26.489 119.393 26.373 C 119.564 26.475 119.596 26.587 119.584 26.781 C 119.555 27.206 119.662 29.706 119.521 29.911 C 119.116 29.92 119.075 29.939 118.84 29.594 C 118.252 28.735 117.709 27.827 117.078 27 C 117.085 27.814 117.082 28.646 117.1 29.463 C 117.104 29.633 117.009 29.839 116.873 29.958 L 116.777 29.941 C 116.604 29.678 116.576 26.533 116.81 26.412 Z" fill="currentColor" fill-rule="nonzero"></path>
  <path d="M 49.383 26.373 L 49.543 26.421 C 49.612 26.496 49.685 26.61 49.664 26.71 C 49.56 27.202 49.772 29.643 49.524 29.91 C 48.801 30.045 47.652 27.311 47.215 27.187 C 46.959 27.45 47.337 29.483 47.033 29.963 C 46.914 29.914 46.805 29.898 46.754 29.766 C 46.7 29.629 46.753 26.609 46.804 26.5 C 46.846 26.409 46.869 26.405 46.956 26.371 C 47.552 26.464 48.53 28.418 48.939 28.914 C 49.037 29.033 49.029 29.145 49.217 29.101 C 49.342 28.881 49.198 27.046 49.238 26.663 C 49.26 26.461 49.233 26.514 49.383 26.373 Z" fill="currentColor" fill-rule="nonzero"></path>
  <path d="M 79.908 26.409 C 80.487 26.436 81.302 26.328 81.867 26.435 C 81.938 26.448 81.953 26.528 81.98 26.593 C 81.881 26.983 80.591 26.819 80.213 26.805 C 80.2 27.126 80.218 27.559 80.221 27.889 C 80.503 27.891 81.681 27.855 81.821 27.96 C 81.865 28.109 81.867 28.047 81.808 28.191 C 81.457 28.444 80.598 28.168 80.204 28.344 C 80.222 28.683 80.204 29.17 80.202 29.52 C 80.613 29.505 81.767 29.407 82.052 29.617 C 82.085 29.751 82.092 29.696 82.016 29.828 C 81.82 29.956 80.158 29.903 79.783 29.908 C 79.809 29.38 79.705 26.612 79.908 26.409 Z" fill="currentColor" fill-rule="nonzero"></path>
  <path d="M 42.556 26.407 C 43.155 26.427 43.933 26.345 44.522 26.433 C 44.601 26.444 44.623 26.525 44.657 26.592 C 44.575 26.981 43.209 26.818 42.853 26.804 L 42.849 27.895 C 43.095 27.898 44.307 27.853 44.44 27.933 C 44.535 28.071 44.514 28.006 44.512 28.182 C 44.257 28.523 43.049 28.047 42.85 28.433 C 42.848 28.704 42.83 29.175 42.888 29.422 C 43.156 29.649 44.412 29.388 44.726 29.581 C 44.773 29.739 44.776 29.673 44.71 29.828 C 44.41 29.989 42.914 29.901 42.456 29.913 C 42.471 28.774 42.447 27.635 42.47 26.496 C 42.47 26.496 42.549 26.415 42.556 26.407 Z" fill="currentColor" fill-rule="nonzero"></path>
  <path d="M 56.016 26.401 C 56.465 26.417 57.896 26.296 58.134 26.513 C 58.166 26.673 58.178 26.613 58.094 26.742 C 57.788 26.907 56.737 26.818 56.321 26.815 L 56.334 27.91 C 56.717 27.901 57.791 27.763 58.004 28.086 C 57.92 28.578 56.736 28.069 56.327 28.387 C 56.344 28.729 56.333 29.18 56.335 29.531 C 56.73 29.515 58.058 29.38 58.264 29.683 L 58.225 29.822 C 58.053 29.957 56.32 29.898 55.949 29.903 C 55.954 29.45 55.879 26.567 56.016 26.401 Z" fill="currentColor" fill-rule="nonzero"></path>
  <path d="M 160.351 26.39 C 160.871 26.445 162.197 26.26 162.492 26.588 C 162.492 26.751 162.514 26.697 162.424 26.804 C 162.073 26.836 161.089 26.824 160.746 26.791 C 160.735 27.149 160.745 27.566 160.746 27.929 C 161.072 27.916 161.966 27.852 162.298 27.942 C 162.345 27.954 162.35 28.018 162.366 28.075 C 162.19 28.543 161.108 28.102 160.732 28.342 C 160.752 28.708 160.745 29.157 160.75 29.53 C 161.141 29.496 162.029 29.545 162.468 29.511 C 162.509 29.54 162.545 29.565 162.575 29.586 C 162.628 29.735 162.629 29.676 162.586 29.813 C 162.398 29.978 160.746 29.889 160.308 29.921 C 160.326 29.143 160.331 28.365 160.323 27.587 C 160.322 27.293 160.294 26.632 160.351 26.39 Z" fill="currentColor" fill-rule="nonzero"></path>
  <path d="M 99.979 26.357 C 100.015 26.368 100.169 26.412 100.179 26.441 C 100.519 27.401 99.602 29.71 101.37 29.554 C 102.675 29.439 101.666 26.445 102.324 26.374 C 102.562 26.524 102.496 26.633 102.491 26.896 C 102.5 27.928 102.804 29.926 101.285 29.98 C 99.311 30.051 99.973 27.83 99.846 26.6 C 99.836 26.502 99.923 26.424 99.979 26.357 Z" fill="currentColor" fill-rule="nonzero"></path>
  <path d="M 76.459 26.354 C 76.487 26.349 76.516 26.345 76.545 26.341 C 76.875 26.297 77.658 26.421 77.686 26.807 C 77.307 27.228 77.002 26.633 76.587 26.753 C 75.969 26.932 75.838 27.557 76.5 27.811 C 77.257 28.101 78.242 28.429 77.643 29.426 C 77.423 29.793 77.111 29.89 76.714 29.987 C 76.103 29.982 75.946 29.903 75.488 29.529 C 75.793 29.248 75.836 29.169 76.265 29.46 C 76.786 29.813 77.413 29.409 77.327 28.821 C 77.207 28.526 76.565 28.328 76.337 28.235 C 75.26 27.792 75.395 26.727 76.459 26.354 Z" fill="currentColor" fill-rule="nonzero"></path>
  <path d="M 122.484 26.353 C 123.112 26.291 123.296 26.358 123.794 26.703 C 123.763 26.731 123.509 26.955 123.499 26.957 C 123.223 27.001 122.801 26.628 122.485 26.745 C 122.314 26.809 122.216 26.937 122.132 27.083 C 122.073 27.186 122.03 27.313 122.077 27.422 C 122.233 27.785 122.872 27.909 123.198 28.081 C 123.47 28.224 123.684 28.385 123.784 28.677 C 123.852 28.879 123.828 29.224 123.719 29.4 C 123.512 29.734 123.185 29.883 122.83 29.982 C 122.451 30.029 121.669 29.886 121.594 29.436 C 121.757 29.159 122.071 29.344 122.281 29.484 C 122.664 29.738 123.237 29.458 123.418 29.1 C 123.508 28.427 121.889 28.318 121.688 27.622 C 121.485 26.918 121.846 26.606 122.484 26.353 Z" fill="currentColor" fill-rule="nonzero"></path>
  <path d="M 87.441 26.356 C 88.071 26.292 88.24 26.354 88.729 26.71 C 88.695 26.752 88.66 26.793 88.625 26.833 C 88.26 27.256 88.053 26.671 87.531 26.742 C 87.298 26.719 86.961 27.191 87.045 27.404 C 87.273 27.987 88.681 27.987 88.785 28.714 C 88.882 29.398 88.419 29.816 87.781 29.978 C 87.248 30.076 86.885 29.833 86.485 29.532 C 87.113 28.993 87.219 29.747 87.881 29.565 C 88.002 29.532 88.293 29.232 88.317 29.105 C 88.461 28.271 86.918 28.407 86.68 27.652 C 86.465 26.967 86.84 26.605 87.441 26.356 Z" fill="currentColor" fill-rule="nonzero"></path>
  <path d="M 131.539 26.355 C 131.907 26.3 132.526 26.33 132.688 26.728 C 132.656 26.904 132.688 26.84 132.566 26.97 C 132.264 27.008 132.282 26.803 132.05 26.741 C 131.818 26.63 131.114 26.884 131.147 27.187 C 131.248 28.11 132.254 27.73 132.839 28.615 L 132.841 29.227 C 132.516 29.753 132.394 29.834 131.812 29.99 C 131.223 29.997 131.024 29.894 130.574 29.55 C 130.616 29.516 130.89 29.301 130.89 29.301 C 131.282 29.32 131.705 29.874 132.117 29.477 C 132.533 29.077 132.512 28.909 132.165 28.51 C 131.433 28.229 131.155 28.317 130.727 27.607 C 130.697 26.887 130.841 26.606 131.539 26.355 Z" fill="currentColor" fill-rule="nonzero"></path>
  <path d="M 153.708 26.397 C 154.165 26.469 155.542 26.291 155.774 26.481 C 155.797 26.597 155.798 26.6 155.759 26.709 C 155.524 26.905 154.414 26.803 154.061 26.777 C 154.07 27.172 154.069 27.577 154.072 27.973 C 154.532 27.964 154.998 27.919 155.459 27.937 C 155.626 27.943 155.643 28.006 155.741 28.123 L 155.651 28.286 C 155.443 28.417 154.366 28.331 154.061 28.316 C 154.062 28.74 154.217 29.73 153.835 29.929 L 153.756 29.903 C 153.733 29.869 153.686 29.774 153.687 29.739 C 153.698 29.377 153.587 26.57 153.708 26.397 Z" fill="currentColor" fill-rule="nonzero"></path>
  <path d="M 167.771 0.621 C 167.791 0.63 160.969 0.547 160.316 0.516 C 161.043 0.461 161.927 0.485 162.668 0.486 L 166.543 0.488 C 167.055 0.488 168.475 0.508 168.909 0.413 C 168.883 0.877 168.861 2.18 168.905 2.63 C 168.684 2.567 167.76 2.589 167.467 2.589 C 166.044 2.596 164.621 2.592 163.199 2.579 C 162.785 2.577 162.226 2.653 161.852 2.61 L 161.828 2.561 C 162.017 2.444 162.226 2.487 162.478 2.486 C 162.333 2.479 161.91 2.488 161.833 2.416 C 162.013 2.364 163.876 2.473 164.214 2.474 C 165.664 2.476 167.114 2.45 168.564 2.397 C 168.573 1.925 168.585 1.121 168.516 0.674 C 168.41 0.612 168.27 0.634 168.14 0.637 L 167.771 0.621 Z" fill="currentColor" fill-rule="nonzero"></path>
  <path d="M 104.344 26.403 C 104.831 26.426 106.671 26.261 106.906 26.589 C 106.891 26.949 106.073 26.832 105.788 26.829 C 105.805 27.529 105.795 28.252 105.794 28.954 C 105.803 29.186 105.845 29.678 105.768 29.859 C 105.645 29.923 105.62 29.914 105.482 29.887 C 105.349 29.759 105.363 29.656 105.364 29.468 C 105.371 28.588 105.392 27.706 105.374 26.825 C 105.062 26.832 104.435 26.918 104.239 26.682 C 104.233 26.543 104.261 26.519 104.344 26.403 Z" fill="currentColor" fill-rule="nonzero"></path>
  <path d="M 53.891 26.411 C 53.988 26.417 53.967 26.422 54.06 26.482 C 54.104 26.634 54.105 26.573 54.068 26.717 C 53.883 26.895 53.239 26.819 52.93 26.817 C 52.939 27.302 52.999 29.487 52.921 29.825 C 52.784 29.924 52.848 29.903 52.681 29.907 L 52.603 29.831 C 52.527 29.638 52.562 29.343 52.571 29.127 C 52.572 28.357 52.578 27.587 52.59 26.817 C 52.246 26.793 51.773 26.9 51.49 26.749 C 51.411 26.625 51.423 26.684 51.454 26.523 C 51.707 26.331 53.464 26.41 53.891 26.411 Z" fill="currentColor" fill-rule="nonzero"></path>
  <path d="M 96.232 26.369 C 96.61 26.459 96.542 26.58 96.541 26.946 C 96.54 27.809 96.532 28.672 96.528 29.535 C 96.894 29.52 97.89 29.424 98.129 29.602 C 98.194 29.768 98.177 29.715 98.12 29.915 C 97.515 29.883 96.73 29.904 96.111 29.905 C 96.155 28.906 96.101 27.537 96.138 26.508 C 96.175 26.453 96.206 26.407 96.232 26.369 Z" fill="currentColor" fill-rule="nonzero"></path>
  <path d="M 147.399 26.382 C 147.572 26.418 147.584 26.393 147.7 26.497 C 147.762 27.023 147.718 28.863 147.724 29.544 C 148.128 29.523 148.947 29.407 149.271 29.556 C 149.372 29.697 149.334 29.699 149.324 29.917 C 148.636 29.87 147.984 29.882 147.295 29.916 C 147.352 28.804 147.271 27.662 147.315 26.548 C 147.318 26.486 147.36 26.425 147.399 26.382 Z" fill="currentColor" fill-rule="nonzero"></path>
  <path d="M 157.768 26.377 C 157.869 26.382 158.111 26.389 158.105 26.529 C 158.084 27.012 158.212 29.644 158.054 29.927 C 157.913 29.914 157.828 29.924 157.729 29.829 C 157.652 29.535 157.737 27.069 157.705 26.55 C 157.703 26.508 157.747 26.416 157.768 26.377 Z" fill="currentColor" fill-rule="nonzero"></path>
  <path d="M 108.807 26.366 C 108.867 26.374 109.135 26.407 109.14 26.503 C 109.181 27.424 109.137 28.369 109.158 29.297 C 109.162 29.497 109.177 29.75 109.104 29.93 C 108.923 29.92 108.867 29.94 108.763 29.801 C 108.724 29.347 108.684 26.594 108.807 26.366 Z" fill="currentColor" fill-rule="nonzero"></path>
  <path d="M 134.946 26.36 L 135.152 26.42 C 135.174 26.445 135.201 26.475 135.231 26.51 C 135.279 27.454 135.217 28.975 135.257 29.875 C 135.109 29.91 135.081 29.921 134.934 29.883 C 134.872 29.808 134.843 29.797 134.847 29.692 C 134.865 29.207 134.739 26.6 134.946 26.36 Z" fill="currentColor" fill-rule="nonzero"></path>
  <path d="M 73.18 26.417 C 73.374 26.406 73.445 26.383 73.565 26.527 C 73.609 26.913 73.627 29.679 73.544 29.934 C 73.452 29.924 73.372 29.904 73.281 29.884 C 73.26 29.861 73.236 29.833 73.207 29.801 C 73.171 28.852 73.197 27.324 73.18 26.417 Z" fill="currentColor" fill-rule="nonzero"></path>
  <path d="M 151.203 26.362 C 151.328 26.411 151.363 26.411 151.428 26.519 C 151.483 27.217 151.442 29.05 151.412 29.818 C 151.368 29.875 151.331 29.923 151.3 29.962 L 151.106 29.832 C 151.09 29.794 151.07 29.757 151.07 29.694 C 151.074 28.633 151.03 27.541 151.086 26.485 C 151.133 26.436 151.172 26.395 151.203 26.362 Z" fill="currentColor" fill-rule="nonzero"></path>
  <path d="M 167.771 0.621 L 168.14 0.637 C 167.246 0.829 165.167 0.724 164.173 0.732 C 163.478 0.738 162.568 0.746 161.872 0.72 L 162.036 0.708 C 161.764 0.669 160.872 0.695 160.764 0.637 C 162.346 0.602 163.969 0.649 165.554 0.626 C 166.241 0.616 167.1 0.666 167.771 0.621 Z" fill="currentColor" fill-rule="nonzero"></path>
  <path d="M 168.152 8.609 C 168.062 8.556 168.057 8.532 168.008 8.439 L 167.986 8.395 L 167.857 8.429 C 167.818 8.376 167.813 8.331 167.804 8.269 C 167.775 8.071 167.738 6.832 167.87 6.723 C 167.972 6.638 167.989 6.747 168.158 6.518 C 168.182 7.139 168.194 7.993 168.152 8.609 Z" fill="currentColor" fill-rule="nonzero"></path>
  <path d="M 126.361 14.727 C 126.414 14.79 126.472 14.851 126.519 14.919 C 126.343 15.077 123.992 15.06 123.875 14.942 L 123.897 14.761 C 124.148 14.786 126.202 14.794 126.361 14.727 Z" fill="currentColor" fill-rule="nonzero"></path>
  <path d="M 124.059 14.454 L 124.098 14.596 C 124.235 14.603 124.372 14.626 124.51 14.641 C 125.117 14.708 125.732 14.604 126.337 14.602 L 126.36 14.729 C 126.202 14.796 124.147 14.788 123.896 14.763 C 123.987 14.668 124.011 14.576 124.059 14.454 Z" fill="currentColor" fill-rule="nonzero"></path>
</svg>